<svg xmlns="http://www.w3.org/2000/svg" width="1200" height="160" viewBox="0 0 1200 160">
  <defs>
    <linearGradient id="shell" x1="0" y1="0" x2="0" y2="160" gradientUnits="userSpaceOnUse">
      <stop offset="0" stop-color="#24566d"/>
      <stop offset="0.24" stop-color="#143445"/>
      <stop offset="0.7" stop-color="#0b1720"/>
      <stop offset="1" stop-color="#1a465b"/>
    </linearGradient>
    <linearGradient id="window" x1="0" y1="32" x2="0" y2="128" gradientUnits="userSpaceOnUse">
      <stop offset="0" stop-color="#0c2532"/>
      <stop offset="0.5" stop-color="#061118"/>
      <stop offset="1" stop-color="#0e2936"/>
    </linearGradient>
    <linearGradient id="rail" x1="0" y1="0" x2="1200" y2="0" gradientUnits="userSpaceOnUse">
      <stop offset="0" stop-color="#237697"/>
      <stop offset="0.18" stop-color="#42d5ff"/>
      <stop offset="0.5" stop-color="#2e9fc3"/>
      <stop offset="0.82" stop-color="#42d5ff"/>
      <stop offset="1" stop-color="#237697"/>
    </linearGradient>
  </defs>
  <path d="M56 24 120 6h960l64 18 50 56-50 56-64 18H120l-64-18L6 80Z"
        fill="url(#shell)" stroke="#2e86a8" stroke-width="4" stroke-linejoin="round"/>
  <path d="M136 54 168 32h864l32 22v52l-32 22H168l-32-22Z"
        fill="url(#window)" stroke="#1f607c" stroke-width="3" stroke-linejoin="round"/>
  <path d="M121 18h958l48 14-20 13H93L73 32Z" fill="#2b718e" opacity="0.72"/>
  <path d="M93 115h1014l20 13-48 14H121l-48-14Z" fill="#041018" opacity="0.84"/>
  <path d="M150 24h900" stroke="url(#rail)" stroke-width="4" stroke-linecap="round"/>
  <path d="M150 136h900" stroke="#236881" stroke-width="3" stroke-linecap="round"/>
  <path d="m24 80 40-42 47 13-24 29 24 29-47 13Z" fill="#123849" stroke="#38b3dc" stroke-width="3"/>
  <path d="m1176 80-40-42-47 13 24 29-24 29 47 13Z" fill="#123849" stroke="#38b3dc" stroke-width="3"/>
  <g fill="#42d5ff" stroke="#06161e" stroke-width="3">
    <circle cx="70" cy="80" r="8"/>
    <circle cx="1130" cy="80" r="8"/>
  </g>
  <g fill="#061118" stroke="#2d7895" stroke-width="2">
    <circle cx="126" cy="25" r="5"/>
    <circle cx="1074" cy="25" r="5"/>
    <circle cx="126" cy="135" r="5"/>
    <circle cx="1074" cy="135" r="5"/>
  </g>
</svg>
